<svg width="200" height="200" viewBox="0 0 200 200" xmlns="http://www.w3.org/2000/svg">
  <defs>
    <linearGradient id="grad2" x1="0%" y1="0%" x2="100%" y2="100%">
      <stop offset="0%" style="stop-color:#10B981;stop-opacity:1" />
      <stop offset="100%" style="stop-color:#14B8A6;stop-opacity:1" />
    </linearGradient>
  </defs>
  
  <!-- Background Circle -->
  <circle cx="100" cy="100" r="80" fill="url(#grad2)" opacity="0.1"/>
  
  <!-- Bike Frame -->
  <circle cx="70" cy="140" r="25" fill="none" stroke="url(#grad2)" stroke-width="4"/>
  <circle cx="130" cy="140" r="25" fill="none" stroke="url(#grad2)" stroke-width="4"/>
  
  <!-- Bike Frame Lines -->
  <line x1="70" y1="115" x2="100" y2="80" stroke="url(#grad2)" stroke-width="4"/>
  <line x1="100" y1="80" x2="130" y2="115" stroke="url(#grad2)" stroke-width="4"/>
  <line x1="70" y1="115" x2="130" y2="115" stroke="url(#grad2)" stroke-width="4"/>
  <line x1="100" y1="80" x2="100" y2="115" stroke="url(#grad2)" stroke-width="4"/>
  
  <!-- Handlebars -->
  <line x1="95" y1="75" x2="105" y2="75" stroke="url(#grad2)" stroke-width="3"/>
  <line x1="90" y1="70" x2="110" y2="70" stroke="url(#grad2)" stroke-width="2"/>
  
  <!-- Seat -->
  <ellipse cx="100" cy="85" rx="8" ry="3" fill="url(#grad2)"/>
  
  <!-- Pedals -->
  <circle cx="100" cy="115" r="3" fill="url(#grad2)"/>
  
  <!-- Person Silhouette -->
  <circle cx="100" cy="50" r="12" fill="url(#grad2)" opacity="0.7"/>
  <ellipse cx="100" cy="70" rx="8" ry="15" fill="url(#grad2)" opacity="0.7"/>
  
  <!-- Motion Lines -->
  <path d="M40 100 Q50 95 60 100" stroke="#10B981" stroke-width="2" fill="none" opacity="0.5"/>
  <path d="M35 110 Q45 105 55 110" stroke="#14B8A6" stroke-width="2" fill="none" opacity="0.4"/>
  <path d="M30 120 Q40 115 50 120" stroke="#10B981" stroke-width="2" fill="none" opacity="0.3"/>
</svg>